<svg width="516" height="150" fill="none" xmlns="http://www.w3.org/2000/svg"><path d="M26.982 7.184H0L6.5 21.99l12.784 35.086 7.698 14.805h-7.698V96.1L11.56 84.692 3 71.88v38.936h16.284V71.88h7.698c16.283 0 24.277-9.03 24.277-25.612V32.796c0-16.58-7.994-25.612-24.277-25.612zm0 14.805c5.18 0 7.993 2.369 7.993 9.77v15.545c0 7.403-2.812 9.771-7.994 9.771h-7.697L6.5 21.99h20.482zm90.572 88.827l-1.776-12.584V82.243c0-10.807-2.665-18.654-10.807-22.059 7.254-3.405 10.659-10.363 10.659-21.022V31.02c0-5.197-.766-9.534-2.38-13.02-2.095-4.527-5.619-7.62-10.75-9.304-3.076-1.01-6.73-1.512-11-1.512H66.927L73 21.99l10.21 31.83 5.626 14.804c7.401 0 10.658 3.553 10.658 13.176v16.285c0 8.438.592 10.067 1.48 12.732l14.804-12.584 1.776 12.584zM91.056 21.989c5.773 0 8.29 3.257 8.29 10.659v10.215c0 8.29-3.7 10.955-9.77 10.955H83.21L73 21.988h18.056zm57.784 9.031c0-7.403 3.257-10.215 8.438-10.215 5.181 0 8.438 2.812 8.438 10.215v54.924H182l-7.891 12.436-7.891 12.436-8.94-13.62c-5.181 0-8.438-2.813-8.438-10.216V31.02zm-16.283 54.924c0 16.581 8.734 26.056 24.721 26.056 3.292 0 6.276-.402 8.94-1.184L182 85.944V32.056C182 15.475 173.266 6 157.278 6c-15.987 0-24.721 9.475-24.721 26.056v53.888z" fill="#2968DF"/><path d="M209.9 33.2c0 30 32.25 34.05 32.25 55.65 0 7.5-3.3 10.2-8.55 10.2-5.25 0-8.55-2.7-8.55-10.2v-7.5h-15.6v6.45c0 16.8 8.4 26.4 24.6 26.4 16.2 0 24.6-9.6 24.6-26.4 0-30-32.25-34.05-32.25-55.65 0-7.5 3-10.35 8.25-10.35s8.25 2.85 8.25 10.35v4.35h15.6v-3.3c0-16.8-8.25-26.4-24.3-26.4s-24.3 9.6-24.3 26.4zM299.904 8h-24.3v105h16.5V73.55h7.8c16.5 0 24.6-9.15 24.6-25.95V33.95c0-16.8-8.1-25.95-24.6-25.95zm0 15c5.25 0 8.1 2.4 8.1 9.9v15.75c0 7.5-2.85 9.9-8.1 9.9h-7.8V23h7.8zm56.242 0h28.5V8h-45v105h45V98h-28.5V67.25h22.65v-15h-22.65V23zm78.475 50.85v15c0 7.5-3.3 10.2-8.55 10.2-5.25 0-8.55-2.7-8.55-10.2v-56.7c0-7.5 3.3-10.35 8.55-10.35 5.25 0 8.55 2.85 8.55 10.35V43.4h15.6V33.2c0-16.8-8.4-26.4-24.6-26.4-16.2 0-24.6 9.6-24.6 26.4v54.6c0 16.8 8.4 26.4 24.6 26.4 16.2 0 24.6-9.6 24.6-26.4V73.85h-15.6zM462.932 23h17.25v90h16.5V23h17.25V8h-51v15z" fill="#FBFBFB"/></svg>