<?xml version="1.0" encoding="utf-8"?><svg viewBox="0 0 24 24" xmlns="http://www.w3.org/2000/svg" xmlns:xlink="http://www.w3.org/1999/xlink"><style>:root>svg{display:none}:root>svg:target{display:block}</style><svg fill="none" viewBox="0 0 21 24" id="icon-advantages-production" xmlns="http://www.w3.org/2000/svg"><path d="M10.5 23.884a.502.502 0 01-.25-.067L.39 18.125a.5.5 0 01-.25-.433V6.308a.5.5 0 01.25-.433L10.25.182a.502.502 0 01.5 0l9.86 5.693a.5.5 0 01.25.433v11.384a.5.5 0 01-.25.433l-9.86 5.692a.502.502 0 01-.25.067zm-9.36-6.48l9.36 5.403 9.36-5.404V6.596L10.5 1.192 1.14 6.596v10.807z" fill="#2968DF"/><path d="M10.5 23.884a.5.5 0 01-.5-.5V12a.5.5 0 111 0v11.384a.5.5 0 01-.5.5z" fill="#2968DF"/><path d="M20.359 18.192a.499.499 0 01-.25-.067L.391 6.741a.5.5 0 01.5-.866l19.718 11.384a.5.5 0 01-.25.933z" fill="#2968DF"/><path d="M.641 18.192a.5.5 0 01-.25-.933L20.109 5.875a.5.5 0 11.5.866L.891 18.125a.499.499 0 01-.25.067z" fill="#2968DF"/></svg><svg fill="none" viewBox="0 0 24 24" id="icon-advantages-professional" xmlns="http://www.w3.org/2000/svg"><path d="M12 23.932a.428.428 0 01-.302-.125L.194 12.303a.428.428 0 010-.606L11.698.193a.428.428 0 01.606 0l11.504 11.504a.428.428 0 010 .606L12.304 23.807a.429.429 0 01-.303.125zM1.104 12l10.898 10.898L22.899 12 12 1.102 1.103 12z" fill="#2968DF"/><path d="M12 16.04a.429.429 0 01-.303-.125l-3.612-3.612a.428.428 0 010-.606l3.612-3.612a.429.429 0 01.606 0l3.612 3.612a.429.429 0 010 .606l-3.612 3.612a.429.429 0 01-.303.126zM8.994 12L12 15.006 15.006 12 12 8.994 8.994 12z" fill="#2968DF"/><path d="M12 8.816a.428.428 0 01-.428-.428V.686a.428.428 0 11.857 0v7.702a.428.428 0 01-.428.428zM12 23.932a.428.428 0 01-.428-.428v-7.892a.428.428 0 11.857 0v7.892a.428.428 0 01-.428.428zM8.388 12.428H.497a.428.428 0 110-.857h7.891a.428.428 0 110 .857zM23.504 12.428h-7.892a.428.428 0 110-.857h7.892a.428.428 0 110 .857z" fill="#2968DF"/></svg><svg fill="none" viewBox="0 0 24 24" id="icon-advantages-progressive" xmlns="http://www.w3.org/2000/svg"><path d="M15.372 15.942v.013l-.325 7.339a.3.3 0 01-.287.286l-7.338.325a.3.3 0 01-.226-.088L.182 16.803a.287.287 0 01-.088-.225L.42 9.239a.3.3 0 01.287-.286l7.338-.325a.3.3 0 01.225.088l7.015 7.014a.3.3 0 01.088.212zm-.913 7.051l.307-6.932-6.827-6.828-6.933.307L.7 16.473 7.527 23.3l6.932-.307z" fill="#2968DF"/><path d="M12.726 18.587a.3.3 0 01-.248.296l-4.262.755a.3.3 0 01-.265-.083l-3.507-3.507a.29.29 0 01-.088-.225l.163-3.67a.3.3 0 01.286-.287l3.67-.162a.3.3 0 01.225.088l3.507 3.507a.3.3 0 01.085.17l.43 3.077a.283.283 0 01.004.041zm-4.461.433l3.824-.678-.377-2.69-3.343-3.342-3.263.144-.144 3.263 3.303 3.303zM21.652 16.53c0 1.673-.509 3.152-1.574 4.217a.3.3 0 11-.424-.425c2.735-2.735 1.377-8.544-3.028-12.95C12.221 2.969 6.412 1.61 3.676 4.346a.3.3 0 11-.424-.425c2.97-2.969 9.16-1.61 13.798 3.028 2.976 2.976 4.601 6.59 4.602 9.582z" fill="#2968DF"/><path d="M23.906.394a.3.3 0 01-.216.288L12.13 4.041a.3.3 0 01-.168-.576l11.56-3.36a.3.3 0 01.384.29z" fill="#2968DF"/><path d="M23.905.395a.3.3 0 01-.26.297L6.438 3.013a.3.3 0 01-.08-.594L23.564.097a.3.3 0 01.34.298z" fill="#2968DF"/><path d="M23.904.394a.296.296 0 01-.012.084l-3.358 11.56a.3.3 0 11-.576-.167L23.316.31a.3.3 0 01.588.083z" fill="#2968DF"/><path d="M23.906.394c0 .013 0 .027-.002.04L21.59 17.582a.3.3 0 01-.595-.08L23.31.354a.3.3 0 01.597.04z" fill="#2968DF"/><path d="M23.905.394c0 .077-.03.154-.088.212l-6.766 6.767a.3.3 0 11-.424-.425L23.393.182a.3.3 0 01.512.212zM3.764 4.133a.297.297 0 01-.035.142L.982 9.395a.3.3 0 11-.528-.284L3.2 3.991a.3.3 0 01.564.142zM20.168 20.534a.3.3 0 01-.159.265l-5.12 2.746a.3.3 0 11-.283-.529l5.12-2.746a.3.3 0 01.442.264zM12.346 3.754c0 .064-.02.128-.062.183L8.296 9.112a.3.3 0 11-.475-.367l3.988-5.175a.3.3 0 01.537.184zM20.547 11.954a.3.3 0 01-.117.238l-5.175 3.988a.3.3 0 11-.366-.475l5.175-3.988a.3.3 0 01.483.237z" fill="#2968DF"/><path d="M5.118 12.166a.3.3 0 01-.474.244l-4.1-2.913a.3.3 0 11.348-.489l4.1 2.914a.3.3 0 01.126.244zM4.957 15.836a.3.3 0 01-.248.295l-4.263.756a.3.3 0 11-.104-.59l4.262-.757a.3.3 0 01.353.296zM8.79 12.005a.3.3 0 01-.598.04L7.761 8.97a.3.3 0 11.594-.083l.431 3.076a.292.292 0 01.003.042zM15.372 15.942a.3.3 0 01-.342.297l-3.076-.43a.3.3 0 11.083-.594l3.076.43a.3.3 0 01.259.297zM15.047 23.28a.3.3 0 01-.569.134l-2.32-4.694a.3.3 0 11.538-.266l2.32 4.694a.3.3 0 01.031.133zM8.465 19.343a.293.293 0 01-.004.052l-.756 4.263a.3.3 0 11-.59-.105l.755-4.262a.3.3 0 01.595.052z" fill="#2968DF"/></svg><svg fill="none" viewBox="0 0 18 14" id="icon-email" xmlns="http://www.w3.org/2000/svg"><path fill-rule="evenodd" clip-rule="evenodd" d="M2.333.333h13.334c.92 0 1.666.747 1.666 1.667v10c0 .92-.746 1.667-1.666 1.667H2.332c-.92 0-1.666-.746-1.666-1.667V2c0-.92.746-1.667 1.666-1.667zm8.042 9.542l5.291-3.708v-1.75L9.541 8.708a.95.95 0 01-1.083 0L2.333 4.417v1.75l5.292 3.708a2.4 2.4 0 002.75 0z" fill="#2968DF"/></svg><svg fill="none" viewBox="0 0 16 16" id="icon-phone" xmlns="http://www.w3.org/2000/svg"><path d="M12.167 15.5a8.391 8.391 0 01-3.95-.992l-.375-.208a15 15 0 01-6.109-6.108l-.208-.375A8.392 8.392 0 01.5 3.833v-.558c0-.444.177-.87.492-1.183L2.4.683a.625.625 0 01.983.125l1.875 3.217a.833.833 0 01-.133 1.008L3.55 6.608a.417.417 0 00-.075.492l.292.55a11.275 11.275 0 004.583 4.575l.55.3a.417.417 0 00.492-.075l1.575-1.575a.833.833 0 011.008-.133l3.217 1.875a.625.625 0 01.125.983l-1.409 1.408c-.313.316-.739.493-1.183.492h-.558z" fill="#2968DF"/></svg></svg>